<svg width="24" height="24" viewBox="0 0 24 24" fill="none" xmlns="http://www.w3.org/2000/svg">
<path d="M3.54774 5.01514C3.79991 5.1228 3.944 5.19458 4.01605 5.26636C4.0881 5.26636 4.16014 5.26636 4.26821 5.26636L4.23219 5.23047C3.98003 5.08691 3.76388 4.94336 3.51172 4.76392C3.40365 4.72803 3.29557 4.65625 3.1875 4.65625C3.3316 4.76392 3.43967 4.90747 3.54774 5.01514Z" fill="url(#paint0_linear_7149_15456)"/>
<g filter="url(#filter0_i_7149_15456)">
<path d="M18.8058 18.3004C18.2469 17.8629 17.648 17.4651 17.0891 17.1072C16.1309 16.1526 15.1328 15.3174 14.0549 14.681C13.0968 14.1639 11.8591 12.8514 10.7014 12.5332C10.7812 12.6128 10.8211 12.6923 10.901 12.7719C10.7413 12.6923 10.6215 12.6526 10.4618 12.6128C9.14435 11.4991 7.90672 10.3855 6.6691 9.15251C6.46949 8.95365 6.26987 8.91387 6.07025 8.71501C5.87064 8.51614 5.71095 8.35705 5.51133 8.19796C5.51133 8.19796 5.51133 8.19796 5.51133 8.23773C4.71287 7.52181 3.9144 6.84566 3.03609 6.12974C2.63685 5.81155 2.31747 5.41382 1.91824 5.01609C1.79847 4.89677 1.87831 4.77745 1.83839 4.65813C1.59885 4.14108 1.43915 3.78312 1.07985 3.30584C1.07985 3.30584 1.11977 3.26607 1.15969 3.22629C1.07985 3.18652 1.03992 3.10697 1 3.0672C1.519 2.94788 2.11785 3.34561 1.79847 2.58992C1.83839 2.62969 1.87831 2.62969 1.91824 2.62969C2.07793 2.70924 2.23762 2.74901 2.39731 2.70924C2.31747 2.62969 2.23762 2.55014 2.15778 2.4706C2.1977 2.43082 2.27754 2.43082 2.27754 2.39105H2.31747C2.35739 2.43082 2.39731 2.4706 2.39731 2.4706C2.43724 2.4706 2.47716 2.43083 2.47716 2.43083C2.79655 2.51037 3.19578 2.78879 3.2357 2.62969C3.2357 2.51037 3.03609 2.43082 2.83647 2.27173C2.83647 2.23196 2.83647 2.23196 2.83647 2.19218C3.07601 2.39105 3.03609 1.99332 3.19578 2.11264C3.3954 2.31151 3.59501 2.43083 3.75471 2.62969C4.51325 3.38539 5.15202 3.98199 5.99041 4.61836C6.03033 4.65813 6.07026 4.65813 6.11018 4.6979C6.50941 5.01609 6.8288 5.33427 7.14818 5.73201C7.10826 5.73201 7.06834 5.73201 7.02841 5.73201C7.30788 6.01042 7.54742 6.32861 7.8668 6.56725C8.66527 7.12407 9.46373 7.72068 10.2223 8.4366C11.0207 9.19229 11.8192 9.86843 12.6975 10.5446C12.2983 10.3059 11.939 10.0275 11.5797 9.70934C11.42 9.55024 11.3002 9.43092 11.1405 9.27183C11.2603 9.43092 11.42 9.55024 11.5797 9.70934C12.1386 10.2662 12.6975 10.9025 13.3762 11.0616C13.4161 11.1412 13.3762 11.1412 13.4161 11.2207C13.7355 11.5389 14.015 11.8969 14.4142 12.056C14.4541 12.0162 14.5739 12.1753 14.5739 12.056C14.8933 12.2946 15.2127 12.6128 15.5321 12.8514C15.6518 12.9707 15.8515 13.0105 16.0111 13.0901C17.129 13.9253 18.2469 14.7605 19.4445 15.6753C19.724 15.914 20.0434 16.2322 20.3229 16.4708C19.8438 16.1526 19.3647 15.8344 18.8856 15.5162C18.5263 15.1185 18.1271 14.7208 17.6879 14.5617C17.6081 14.5219 17.4883 14.4821 17.4085 14.4026C17.9275 14.8003 18.4065 15.1583 18.9256 15.5162C19.1651 15.7549 19.3647 16.0333 19.6042 16.2719C19.3647 16.1128 19.1651 15.9538 18.9256 15.7947C18.6062 15.4367 18.2469 15.0787 17.8476 14.8799C17.8077 14.8401 17.7678 14.8401 17.6879 14.8003C17.6081 14.7606 17.4883 14.7208 17.4085 14.6412C17.7278 14.8799 18.0472 15.1185 18.3267 15.3174C18.5263 15.4765 18.7259 15.5958 18.8856 15.7549C18.9655 15.8742 19.0852 15.9935 19.1651 16.0731H19.1252C19.0054 15.9935 18.4065 16.0731 18.4864 16.3117C19.205 16.9879 20.3229 17.8629 20.2829 17.9026C20.2031 18.0617 18.8457 16.9879 18.8856 17.0674C18.9256 17.1469 19.0054 17.2265 19.0453 17.306C18.9655 17.2663 18.8856 17.2265 18.8058 17.1867C18.6461 17.0674 18.4864 16.8685 18.3267 16.8288C17.8476 16.6697 17.5282 16.2719 17.0492 15.9935C16.7298 15.8344 16.3705 15.6753 15.9712 15.5162C15.9313 15.556 15.8115 15.3969 15.8115 15.5162C15.572 15.2776 15.2526 14.9594 14.9731 14.9992C14.9731 14.9992 14.9731 14.9992 14.9332 14.9992C14.9332 14.9992 14.8933 14.9594 14.8534 14.9594C14.4541 14.5219 14.015 14.3628 13.496 14.0844C13.3363 13.9651 13.2165 13.8458 13.0568 13.6867C13.1367 13.7662 13.2564 13.9253 13.3762 14.0049C13.4161 14.0446 13.4561 14.0446 13.496 14.0844C13.8952 14.4026 14.2945 14.6412 14.6937 14.9196C14.7336 14.9196 14.8135 14.9594 14.8534 14.9594C14.8933 14.9992 14.8933 14.9992 14.9332 15.039H14.9731C15.3724 15.2776 15.7716 15.5958 16.091 15.7947C16.6898 16.1924 17.1689 16.789 17.6879 17.306C17.3685 17.1072 17.0891 16.9083 16.7697 16.7094C17.129 16.9879 17.4883 17.2265 17.8077 17.4651C17.8476 17.5049 17.8875 17.5447 17.9275 17.5845L18.2069 17.8629C18.1271 17.7833 18.0472 17.664 17.9674 17.5845C18.167 17.7038 18.3666 17.8629 18.5662 17.9822C19.6042 18.7777 20.6422 19.6527 21.5206 20.6072C21.4806 20.6072 21.4008 20.647 21.3609 20.647C20.8818 20.2095 20.4426 19.772 19.9236 19.5334C20.1632 19.772 20.4027 19.9311 20.6822 20.1697C20.6822 20.1697 20.6423 20.2095 20.6023 20.2095C20.8019 20.3288 21.0016 20.4879 21.2012 20.647C21.0814 20.647 20.9217 20.647 20.8019 20.6868C20.6423 20.647 20.5225 20.5277 20.3628 20.4084C19.724 19.8515 19.1651 19.2947 18.5263 18.7777C18.0073 18.2606 17.4883 17.7038 17.0092 17.2265C17.6879 17.5447 18.2469 17.9424 18.8058 18.3004ZM2.36956 3.17641C2.40949 3.21618 2.83754 3.59144 2.91739 3.63121L3.96739 4.31342C3.88754 4.23388 2.44941 3.17641 2.36956 3.17641ZM4.78913 5.67784C4.65217 5.24367 3.14565 3.99506 2.55701 3.70357C2.55701 3.70357 2.55701 3.70357 2.51709 3.70357C2.87639 4.1013 4.3899 5.35966 4.78913 5.67784ZM10.901 11.3003C10.382 11.0616 9.94281 10.6241 9.42381 10.2264C9.30404 10.1071 9.02458 10.0673 8.86488 9.86843C8.62534 9.66956 8.42573 9.59002 8.18619 9.43093L8.26603 9.6298C7.98657 9.27184 7.62726 9.27183 7.3478 8.8741C7.30788 8.91387 7.22803 8.91387 7.18811 8.8741C6.94857 8.67523 6.74895 8.39682 6.50941 8.2775C6.26987 8.07863 6.03033 7.83999 5.79079 7.72067C5.75087 7.6809 5.55125 7.6809 5.43148 7.60136C5.31171 7.48204 5.19194 7.40248 5.07217 7.28316V7.32294C5.15202 7.40249 5.27179 7.52181 5.35164 7.56158C5.67102 7.80022 6.07026 8.03886 6.34972 8.2775C7.10826 8.91387 7.82688 9.43093 8.58542 9.94798C8.74512 10.0673 8.94473 10.1468 9.10443 10.2662C9.62343 10.5843 10.1025 11.1014 10.5816 11.181C10.7014 11.2207 10.8211 11.3003 10.901 11.3003ZM12.6177 10.6241C12.0188 10.2662 11.42 9.78888 10.9808 9.3116C10.6215 8.95364 9.38389 8.07863 9.26412 8.55591C10.3021 8.39682 12.2983 11.5389 12.6177 10.6241ZM16.9294 13.9253C16.6898 13.7662 16.4503 13.6469 16.2507 13.4083C16.4902 13.5674 16.7298 13.7264 16.9294 13.9253ZM13.8553 13.0901C14.6538 13.4878 15.2925 14.0844 16.0111 14.6015C16.5701 14.9594 16.9294 15.5958 17.5282 15.8344C17.5682 15.7947 17.5682 15.7947 17.6081 15.7549H17.5282C17.3685 15.5958 17.2887 15.3969 17.1689 15.2378H17.2088L17.1689 15.1981C17.0891 15.0787 17.0092 14.9992 16.8895 14.9196C16.8096 14.8799 16.7697 14.8401 16.6898 14.8003C16.0511 14.2833 15.4522 13.7264 14.7336 13.4083C14.3344 13.1696 13.9351 13.0503 13.496 12.8117C13.6158 12.8514 13.7355 13.0105 13.8553 13.0901Z" fill="url(#paint1_linear_7149_15456)"/>
</g>
<path fill-rule="evenodd" clip-rule="evenodd" d="M16.5067 6.49333H6.49333V16.5067H16.5067V6.49333ZM5 5V18H18V5H5Z" fill="url(#paint2_linear_7149_15456)"/>
<path d="M20.0985 19.9656C20.0985 19.9656 20.1345 19.9297 20.1345 20.0015C20.1345 20.0015 20.1345 20.0015 20.0985 19.9656C20.0985 19.9656 20.0625 20.0015 20.0265 20.0015C20.2066 20.1091 20.3867 20.2527 20.5668 20.3962C20.6028 20.3962 20.6749 20.3962 20.7109 20.3603C20.2786 19.9656 19.8824 19.5708 19.4141 19.3555C19.6662 19.6426 19.8824 19.7502 20.0985 19.9656Z" fill="url(#paint3_linear_7149_15456)"/>
<path d="M20.8906 20.2892L20.9267 20.3251C20.9267 20.2533 20.9266 20.2533 20.8906 20.2892Z" fill="url(#paint4_linear_7149_15456)"/>
<path d="M13.1458 13.6509C12.8576 13.4355 12.5694 13.292 12.2812 13.1484C12.8216 13.5432 13.3259 13.9739 13.7942 14.261C13.5421 14.0815 13.362 13.8662 13.1458 13.6509Z" fill="url(#paint5_linear_7149_15456)"/>
<path d="M10.8438 12.3945C11.0959 12.7534 11.4201 12.9329 11.7443 13.1123C11.4922 12.897 11.204 12.6816 10.9518 12.4304C10.9158 12.4304 10.8798 12.3945 10.8438 12.3945Z" fill="url(#paint6_linear_7149_15456)"/>
<path d="M11.3125 12.5742C11.6007 12.8613 11.9249 13.0049 12.2491 13.1484C11.9609 12.9331 11.6367 12.7537 11.3125 12.5742Z" fill="url(#paint7_linear_7149_15456)"/>
<path d="M19.1962 15.8745C19.4483 15.9822 19.5924 16.054 19.6645 16.1257C19.7365 16.1257 19.8086 16.1257 19.9167 16.1257L19.8806 16.0898C19.6285 15.9463 19.4123 15.8027 19.1602 15.6233C19.0521 15.5874 18.944 15.5156 18.8359 15.5156C18.98 15.6233 19.0881 15.7668 19.1962 15.8745Z" fill="url(#paint8_linear_7149_15456)"/>
<path d="M16.9332 16.4827C16.8971 16.4827 16.8971 16.4827 16.9332 16.4827C16.8611 16.4468 16.8251 16.4109 16.7891 16.375C16.8251 16.4468 16.8971 16.4468 16.9332 16.4827Z" fill="url(#paint9_linear_7149_15456)"/>
<path d="M15.306 13.5042C15.4861 13.6477 15.6662 13.7913 15.8463 13.9348C15.4861 13.6477 15.1259 13.3247 14.7656 13.1094C14.8016 13.1453 14.8377 13.217 14.8737 13.2529C15.0178 13.2888 15.1979 13.3606 15.306 13.5042Z" fill="url(#paint10_linear_7149_15456)"/>
<path d="M17.7231 16.7368C17.9392 16.8804 18.1554 17.0239 18.3355 17.2034C18.5156 17.311 18.6957 17.4187 18.8398 17.5264C19.6323 18.0647 20.3528 18.8542 21.1453 19.5361C21.2534 19.5002 21.3254 19.4284 21.3615 19.3208C20.677 18.4595 19.7764 17.8494 19.0199 17.0239C19.0199 17.0239 19.0199 17.0239 18.9839 17.0239C18.5156 16.8445 18.0113 16.2703 17.4709 15.9832C16.8945 15.7319 16.4622 15.373 15.9219 15.0859C16.5703 15.5884 17.1827 16.0908 17.7231 16.7368Z" fill="url(#paint11_linear_7149_15456)"/>
<path d="M11.7422 13.1094C11.9223 13.2529 12.1024 13.3965 12.2825 13.54C12.7869 13.9348 13.2912 14.2578 13.7955 14.5808C13.4713 14.2937 13.1471 14.0066 12.8589 13.6836C12.4987 13.4324 12.1024 13.2888 11.7422 13.1094Z" fill="url(#paint12_linear_7149_15456)"/>
<path d="M14.1931 14.8711C14.049 14.7993 13.9049 14.6916 13.7969 14.6199C14.2652 15.0505 14.7335 15.4812 15.2378 15.876C16.0664 16.522 16.8949 17.1321 17.7595 17.7422C17.8676 17.814 17.9396 17.8857 18.0477 17.9575C16.7148 16.5579 15.3819 15.1941 13.9049 14.3328C13.8689 14.3328 13.8329 14.2969 13.8329 14.2969C14.4093 14.8352 14.9857 15.3376 15.562 15.8401C15.0577 15.4812 14.6254 15.1582 14.1931 14.8711Z" fill="url(#paint13_linear_7149_15456)"/>
<path d="M17.5391 16.5938C17.5751 16.6296 17.6111 16.6655 17.6471 16.7014C17.7192 16.7373 17.7552 16.7732 17.8273 16.8091C17.7912 16.7732 17.7912 16.7373 17.7552 16.7373C17.6471 16.6655 17.6111 16.6296 17.5391 16.5938Z" fill="url(#paint14_linear_7149_15456)"/>
<path d="M16.9996 14.7629C16.8555 14.6194 16.7114 14.5117 16.5673 14.4041C16.3511 14.2605 16.099 14.1169 15.8828 13.9375C16.2431 14.2605 16.6393 14.5835 16.9996 14.7629Z" fill="url(#paint15_linear_7149_15456)"/>
<path d="M16.4601 13.0396C16.424 13.0037 16.352 12.9319 16.2799 12.8601C16.2439 12.8601 16.2079 12.8242 16.1719 12.8242C16.2079 12.8601 16.2439 12.896 16.2799 12.9319L16.4601 13.0396Z" fill="url(#paint16_linear_7149_15456)"/>
<path d="M13.6124 10.9946C14.441 11.6406 15.2335 12.2148 16.026 12.7891C16.062 12.7891 16.1341 12.8249 16.1701 12.8249C15.7378 12.3584 15.2335 11.9277 14.6931 11.6406C14.585 11.5688 14.3689 11.533 14.2969 11.4612C13.8646 11.1023 13.4323 10.8152 13 10.4922C13.1801 10.6716 13.3963 10.8511 13.6124 10.9946Z" fill="url(#paint17_linear_7149_15456)"/>
<g filter="url(#filter1_i_7149_15456)">
<path d="M2.63948 21.1641C2.59934 21.204 2.59934 21.204 2.63948 21.1641C2.63948 21.204 2.63948 21.204 2.63948 21.204C2.63948 21.204 2.63948 21.204 2.63948 21.1641Z" fill="url(#paint18_linear_7149_15456)"/>
<path d="M21.5224 2.39099C21.5224 2.39099 21.4825 2.35121 21.5624 2.35121C21.5224 2.39099 21.5224 2.39099 21.5224 2.39099C21.5224 2.39099 21.5624 2.43076 21.5624 2.47053C21.6821 2.27167 21.8418 2.0728 22.0015 1.87393C22.0015 1.83416 22.0015 1.75462 21.9616 1.71484C21.5224 2.19212 21.0833 2.62963 20.8438 3.14668C21.1232 2.86827 21.2829 2.6694 21.5224 2.39099Z" fill="url(#paint19_linear_7149_15456)"/>
<path d="M4.32147 2.53674C4.32147 2.53674 4.40274 2.52217 4.25621 2.48634C4.32147 2.53674 4.32147 2.53674 4.32147 2.53674C4.32147 2.53674 4.2402 2.55131 4.23219 2.5838C4.05241 2.36761 3.79934 2.13351 3.54629 1.89941C3.55429 1.86692 3.5703 1.80195 3.65158 1.78738C4.36149 2.37431 5.07941 2.92875 5.41497 3.45858C4.95812 3.10575 4.70506 2.87165 4.32147 2.53674Z" fill="url(#paint20_linear_7149_15456)"/>
<path d="M21.8438 1.51655L21.8839 1.47656C21.8438 1.47656 21.8438 1.51655 21.8438 1.51655Z" fill="url(#paint21_linear_7149_15456)"/>
<path d="M14.4964 10.1065C14.2569 10.4247 14.0972 10.7429 13.9375 11.0611C14.3767 10.4645 14.8557 9.90768 15.1751 9.39062C14.9356 9.62926 14.696 9.8679 14.4964 10.1065Z" fill="url(#paint22_linear_7149_15456)"/>
<path d="M13.0625 12.6545C13.4617 12.3761 13.6613 12.0181 13.861 11.6602C13.6214 11.9386 13.3819 12.2568 13.1024 12.5352C13.1024 12.5749 13.1024 12.6147 13.0625 12.6545Z" fill="url(#paint23_linear_7149_15456)"/>
<path d="M13.3047 12.0966C13.6241 11.7784 13.7838 11.4205 13.9435 11.0625C13.7039 11.4205 13.4644 11.7386 13.3047 12.0966Z" fill="url(#paint24_linear_7149_15456)"/>
<path d="M16.9383 3.38531C17.0581 3.1069 17.1379 2.9478 17.2178 2.86826C17.2178 2.78871 17.2178 2.70916 17.2178 2.58984L17.1778 2.62962C17.0181 2.90803 16.8584 3.14667 16.6588 3.42509C16.6189 3.54441 16.5391 3.66372 16.5391 3.78304C16.6988 3.66372 16.8185 3.50463 16.9383 3.38531Z" fill="url(#paint25_linear_7149_15456)"/>
<path d="M17.612 5.93359C17.572 6.01314 17.5321 6.05292 17.4922 6.09269C17.572 6.01314 17.612 5.97337 17.612 5.93359Z" fill="url(#paint26_linear_7149_15456)"/>
<path d="M14.2985 7.68254C14.4582 7.48367 14.6179 7.2848 14.7776 7.08594C14.4582 7.48367 14.0989 7.8814 13.8594 8.27914C13.8993 8.23936 13.9791 8.19959 14.0191 8.15982C14.059 8.00073 14.1788 7.84163 14.2985 7.68254Z" fill="url(#paint27_linear_7149_15456)"/>
<path d="M18.8107 4.26318C18.3716 4.82001 17.9723 5.41661 17.613 5.97343C16.6549 6.92799 15.8165 7.92233 15.1777 8.99621C14.6587 9.95077 13.3412 11.1837 13.0218 12.3372C13.1017 12.2576 13.1815 12.2178 13.2614 12.1383C13.1815 12.2974 13.1416 12.4167 13.1017 12.5758C11.9838 13.8883 10.866 15.1213 9.62836 16.3543C9.42875 16.5531 9.38882 16.752 9.18921 16.9509C8.98959 17.1497 8.8299 17.3088 8.6702 17.5077C8.6702 17.5077 8.67021 17.5077 8.71013 17.5077C7.99151 18.3032 7.31281 19.0986 6.59419 19.9736C6.27481 20.3714 5.87557 20.6896 5.47634 21.0873C5.35657 21.2066 5.2368 21.1271 5.11703 21.1668C4.59803 21.4055 4.23872 21.5646 3.75964 21.9225C3.75964 21.9225 3.71972 21.8828 3.67979 21.843C3.63987 21.9225 3.56003 21.9623 3.5201 22.0021C3.40033 21.485 3.79956 20.8884 3.04102 21.2066C3.08094 21.1668 3.08094 21.1271 3.08094 21.0873C3.16079 20.9282 3.20072 20.7691 3.16079 20.61C3.08095 20.6896 3.0011 20.7691 2.92125 20.8486C2.88133 20.8089 2.88133 20.7293 2.8414 20.7293V20.6896C2.88133 20.6498 2.92125 20.61 2.92125 20.61C2.92125 20.5702 2.88133 20.5305 2.88133 20.5305C2.96117 20.2123 3.24064 19.8146 3.08094 19.7748C2.96117 19.7748 2.88133 19.9736 2.72164 20.1725C2.68171 20.1725 2.68171 20.1725 2.64179 20.1725C2.8414 19.9339 2.44217 19.9736 2.56194 19.8145C2.76156 19.6157 2.88133 19.4168 3.08094 19.2577C3.83949 18.502 4.43834 17.8657 5.07711 17.0304C5.11703 16.9906 5.11703 16.9509 5.15696 16.9111C5.47634 16.5134 5.79573 16.1952 6.19496 15.877C6.19496 15.9168 6.19496 15.9565 6.19496 15.9963C6.47442 15.7179 6.79381 15.4793 7.03335 15.1611C7.59228 14.3656 8.19113 13.5701 8.90975 12.8144C9.66829 12.019 10.347 11.2235 11.0257 10.3485C10.7861 10.7462 10.5067 11.1042 10.1873 11.4621C10.0276 11.6212 9.90783 11.7406 9.74813 11.8997C9.90783 11.7803 10.0276 11.6212 10.1873 11.4621C10.7462 10.9053 11.385 10.3485 11.5447 9.67235C11.6245 9.63257 11.6245 9.67236 11.7044 9.63258C12.0238 9.3144 12.3831 9.03598 12.5428 8.63825C12.5028 8.59848 12.6625 8.47915 12.5428 8.47915C12.7823 8.16096 13.1017 7.84278 13.3412 7.52459C13.461 7.40527 13.5009 7.20641 13.5808 7.04732C14.4192 5.93367 15.2575 4.82001 16.1758 3.62681C16.4153 3.3484 16.7347 3.03021 16.9742 2.75179C16.6549 3.22907 16.3355 3.70636 16.0161 4.18363C15.6169 4.54159 15.2176 4.93933 15.0579 5.37683C15.018 5.45638 14.9781 5.5757 14.8982 5.65525C15.2975 5.13819 15.6568 4.66091 16.0161 4.14386C16.2556 3.90522 16.5351 3.70635 16.7746 3.46771C16.6149 3.70635 16.4552 3.90522 16.2956 4.14386C15.9362 4.46205 15.5769 4.82001 15.3773 5.21774C15.3374 5.25752 15.3374 5.29729 15.2975 5.37683C15.2575 5.45638 15.2176 5.5757 15.1378 5.65525C15.3773 5.33706 15.6169 5.01887 15.8165 4.74046C15.9762 4.54159 16.0959 4.34273 16.2556 4.18363C16.3754 4.10409 16.4952 3.98477 16.575 3.90522V3.94499C16.4952 4.06431 16.575 4.66091 16.8146 4.58137C17.4932 3.86545 18.3716 2.7518 18.4115 2.79157C18.5712 2.87112 17.4932 4.22341 17.5731 4.18363C17.6529 4.14386 17.7328 4.06432 17.8126 4.02454C17.7727 4.10409 17.7328 4.18363 17.6929 4.26318C17.5731 4.42227 17.3735 4.58137 17.3336 4.74046C17.1739 5.21774 16.7746 5.53593 16.4952 6.01321C16.3355 6.3314 16.1758 6.68935 16.0161 7.08708C16.056 7.12685 15.8963 7.24618 16.0161 7.24618C15.7765 7.48482 15.4572 7.803 15.4971 8.08141C15.4971 8.08141 15.4971 8.08142 15.4971 8.12119C15.4971 8.12119 15.4572 8.16097 15.4572 8.20074C15.018 8.59847 14.8583 9.03598 14.5788 9.55303C14.4591 9.71212 14.3393 9.83145 14.1796 9.99054C14.2595 9.91099 14.4192 9.79167 14.499 9.67235C14.5389 9.63257 14.5389 9.5928 14.5788 9.55303C14.8982 9.1553 15.1378 8.75757 15.4172 8.35983C15.4172 8.32006 15.4572 8.24052 15.4572 8.20074C15.4971 8.16097 15.4971 8.16096 15.537 8.12119V8.08141C15.7765 7.68368 16.0959 7.28595 16.2956 6.96777C16.6948 6.37117 17.2936 5.89389 17.8126 5.37683C17.613 5.69502 17.4134 5.97343 17.2138 6.29162C17.4932 5.93366 17.7328 5.5757 17.9723 5.25751C18.0123 5.21774 18.0522 5.17797 18.0921 5.13819L18.3716 4.85978C18.2917 4.93933 18.1719 5.01888 18.0921 5.09842C18.2119 4.89956 18.3716 4.70069 18.4913 4.50182C19.2898 3.46772 20.1681 2.43361 21.1263 1.55859C21.1263 1.59837 21.1662 1.67792 21.1662 1.71769C20.727 2.19497 20.2879 2.63247 20.0483 3.14953C20.2879 2.91089 20.4476 2.67225 20.6871 2.39384C20.6871 2.39384 20.727 2.43361 20.727 2.47338C20.8468 2.27451 21.0065 2.07565 21.1662 1.87678C21.1662 1.9961 21.1662 2.15519 21.2061 2.27451C21.1662 2.43361 21.0464 2.55293 20.9266 2.71202C20.3677 3.3484 19.8088 3.90522 19.2898 4.54159C18.7708 5.05865 18.2119 5.5757 17.7328 6.05298C18.0522 5.33706 18.4514 4.78023 18.8107 4.26318ZM4.15887 20.2521C4.1988 20.2123 4.23872 20.1327 4.27864 20.0532H4.23872C4.15887 20.1327 4.15887 20.2123 4.15887 20.2521ZM5.27672 19.2179C4.91741 19.4964 4.55811 19.9736 4.1988 20.4111C4.1988 20.4111 4.1988 20.4111 4.1988 20.4509C4.55811 20.1327 4.91741 19.6554 5.27672 19.2179ZM11.7842 12.0985C11.5447 12.6156 11.1055 13.0531 10.7063 13.5701C10.5865 13.6895 10.5466 13.9679 10.347 14.127C10.1474 14.3656 10.0675 14.5645 9.90783 14.8031L10.1074 14.7236C9.74813 15.002 9.74813 15.3599 9.3489 15.6383C9.38882 15.6781 9.38882 15.7577 9.3489 15.7974C9.14928 16.0361 8.86982 16.2349 8.75005 16.4736C8.55044 16.7122 8.31089 16.9509 8.19113 17.1895C8.1512 17.2293 8.1512 17.4282 8.07135 17.5475C7.95158 17.6668 7.87174 17.7861 7.75197 17.9054H7.79189C7.87174 17.8259 7.99151 17.7066 8.03143 17.627C8.27097 17.3088 8.51051 16.9111 8.75005 16.6327C9.38882 15.877 9.90783 15.1611 10.4268 14.4054C10.5466 14.2463 10.6264 14.0474 10.7462 13.8883C11.0656 13.3713 11.5846 12.894 11.6644 12.4167C11.7044 12.2974 11.7842 12.2178 11.7842 12.0985ZM11.1055 10.4281C10.7462 11.0246 10.2671 11.6212 9.78806 12.0587C9.42875 12.4167 8.55043 13.6497 9.02951 13.769C8.86982 12.6951 12.0637 10.7462 11.1055 10.4281ZM14.4192 6.09275C14.2595 6.33139 14.1397 6.57003 13.9002 6.7689C14.0598 6.57003 14.2595 6.33139 14.4192 6.09275ZM13.5808 9.1553C13.98 8.35983 14.5789 7.72346 15.0979 7.00754C15.4572 6.45072 16.0959 6.09275 16.3355 5.49616C16.2956 5.45638 16.2956 5.45638 16.2556 5.41661V5.49616C16.0959 5.65525 15.8963 5.73479 15.7366 5.85411V5.81434L15.6967 5.85411C15.5769 5.93366 15.4971 6.0132 15.4172 6.13252C15.3773 6.21207 15.3374 6.25184 15.2975 6.33139C14.7785 6.96776 14.2195 7.56436 13.9002 8.28028C13.6606 8.67801 13.5408 9.07575 13.3013 9.51326C13.3412 9.39394 13.5408 9.27462 13.5808 9.1553Z" fill="url(#paint28_linear_7149_15456)"/>
<path d="M17.8912 5.01711C18.0509 4.77847 18.2105 4.53982 18.4102 4.34096C18.5299 4.14209 18.6497 3.94323 18.7695 3.78413C19.3683 2.90912 20.2466 2.11366 21.0052 1.23864C20.9653 1.11932 20.8854 1.03977 20.7656 1C19.8075 1.75569 19.1288 2.75003 18.2105 3.58527C18.2105 3.58527 18.2105 3.58527 18.2105 3.62504C18.0109 4.14209 17.3722 4.69892 17.0528 5.29552C16.7733 5.93189 16.3741 6.40917 16.0547 7.00577C16.6136 6.28985 17.1725 5.61371 17.8912 5.01711Z" fill="url(#paint29_linear_7149_15456)"/>
<path d="M13.8594 11.6577C14.0191 11.4588 14.1788 11.26 14.3385 11.0611C14.7776 10.5043 15.1369 9.94745 15.4962 9.39062C15.1768 9.74858 14.8575 10.1065 14.4981 10.4247C14.2187 10.8225 14.059 11.2202 13.8594 11.6577Z" fill="url(#paint30_linear_7149_15456)"/>
<path d="M15.8185 8.95496C15.7386 9.11405 15.6188 9.27315 15.539 9.39247C16.0181 8.87542 16.4972 8.35836 16.9363 7.80154C17.6549 6.88675 18.3336 5.97197 19.0123 5.01741C19.0922 4.89809 19.172 4.81854 19.2519 4.69922C17.6949 6.17083 16.1778 7.64244 15.2196 9.27314C15.2196 9.31292 15.1797 9.35269 15.1797 9.35269C15.7785 8.71632 16.3375 8.07995 16.8964 7.44358C16.4972 7.96063 16.1378 8.43791 15.8185 8.95496Z" fill="url(#paint31_linear_7149_15456)"/>
<path d="M17.7344 5.25569C17.7743 5.21591 17.8142 5.17614 17.8541 5.13637C17.8941 5.05682 17.934 5.01705 17.9739 4.9375C17.934 4.97727 17.8941 4.97728 17.8941 5.01705C17.8541 5.0966 17.7743 5.17614 17.7344 5.25569Z" fill="url(#paint32_linear_7149_15456)"/>
<path d="M15.6995 5.85156C15.5398 6.01066 15.42 6.16975 15.3003 6.32884C15.1406 6.56748 14.9809 6.84589 14.7812 7.08453C15.1406 6.64703 15.4999 6.2493 15.6995 5.85156Z" fill="url(#paint33_linear_7149_15456)"/>
<path d="M13.7786 6.44922C13.7387 6.48899 13.6588 6.56854 13.579 6.64809C13.579 6.68786 13.5391 6.72763 13.5391 6.7674C13.579 6.72763 13.6189 6.68786 13.6588 6.64809L13.7786 6.44922Z" fill="url(#paint34_linear_7149_15456)"/>
<path d="M11.5042 9.58953C12.2229 8.67475 12.8616 7.79973 13.5004 6.92472C13.5004 6.88494 13.5403 6.8054 13.5403 6.76562C13.0213 7.2429 12.5422 7.79973 12.2229 8.39633C12.143 8.51565 12.1031 8.75429 12.0232 8.83384C11.624 9.31112 11.3046 9.78839 10.9453 10.2657C11.1449 10.0668 11.3445 9.82817 11.5042 9.58953Z" fill="url(#paint35_linear_7149_15456)"/>
</g>
<g filter="url(#filter2_i_7149_15456)">
<path d="M3.42823 2.26095C4.23647 3.01457 5.01159 3.6868 5.78671 4.35902C5.82315 4.36052 5.89437 4.40347 5.93081 4.40497C5.51511 3.86762 5.02487 3.36721 4.49155 3.02509C4.38555 2.94068 4.26555 2.80514 4.19599 2.72224C3.77531 2.30473 4.07051 2.59944 3.64817 2.22188C3.82207 2.42913 3.21623 2.09214 3.42823 2.26095Z" fill="url(#paint36_linear_7149_15456)"/>
</g>
<defs>
<filter id="filter0_i_7149_15456" x="1" y="2.08984" width="20.5234" height="19.0114" filterUnits="userSpaceOnUse" color-interpolation-filters="sRGB">
<feFlood flood-opacity="0" result="BackgroundImageFix"/>
<feBlend mode="normal" in="SourceGraphic" in2="BackgroundImageFix" result="shape"/>
<feColorMatrix in="SourceAlpha" type="matrix" values="0 0 0 0 0 0 0 0 0 0 0 0 0 0 0 0 0 0 127 0" result="hardAlpha"/>
<feOffset dy="0.413745"/>
<feGaussianBlur stdDeviation="1.30666"/>
<feComposite in2="hardAlpha" operator="arithmetic" k2="-1" k3="1"/>
<feColorMatrix type="matrix" values="0 0 0 0 0.941176 0 0 0 0 0.403922 0 0 0 0 0.176471 0 0 0 0.7 0"/>
<feBlend mode="normal" in2="shape" result="effect1_innerShadow_7149_15456"/>
</filter>
<filter id="filter1_i_7149_15456" x="2.53906" y="1" width="19.4609" height="21.4177" filterUnits="userSpaceOnUse" color-interpolation-filters="sRGB">
<feFlood flood-opacity="0" result="BackgroundImageFix"/>
<feBlend mode="normal" in="SourceGraphic" in2="BackgroundImageFix" result="shape"/>
<feColorMatrix in="SourceAlpha" type="matrix" values="0 0 0 0 0 0 0 0 0 0 0 0 0 0 0 0 0 0 127 0" result="hardAlpha"/>
<feOffset dy="0.413745"/>
<feGaussianBlur stdDeviation="0.724053"/>
<feComposite in2="hardAlpha" operator="arithmetic" k2="-1" k3="1"/>
<feColorMatrix type="matrix" values="0 0 0 0 0.6 0 0 0 0 0.156863 0 0 0 0 0.501961 0 0 0 1 0"/>
<feBlend mode="normal" in2="shape" result="effect1_innerShadow_7149_15456"/>
</filter>
<filter id="filter2_i_7149_15456" x="3.38281" y="2.21094" width="2.54688" height="2.60906" filterUnits="userSpaceOnUse" color-interpolation-filters="sRGB">
<feFlood flood-opacity="0" result="BackgroundImageFix"/>
<feBlend mode="normal" in="SourceGraphic" in2="BackgroundImageFix" result="shape"/>
<feColorMatrix in="SourceAlpha" type="matrix" values="0 0 0 0 0 0 0 0 0 0 0 0 0 0 0 0 0 0 127 0" result="hardAlpha"/>
<feOffset dy="0.413745"/>
<feGaussianBlur stdDeviation="1.30666"/>
<feComposite in2="hardAlpha" operator="arithmetic" k2="-1" k3="1"/>
<feColorMatrix type="matrix" values="0 0 0 0 0.941176 0 0 0 0 0.403922 0 0 0 0 0.176471 0 0 0 0.7 0"/>
<feBlend mode="normal" in2="shape" result="effect1_innerShadow_7149_15456"/>
</filter>
<linearGradient id="paint0_linear_7149_15456" x1="3.1875" y1="4.9613" x2="4.26821" y2="4.9613" gradientUnits="userSpaceOnUse">
<stop stop-color="#8A2387"/>
<stop offset="0.5" stop-color="#E94057"/>
<stop offset="1" stop-color="#F27121"/>
</linearGradient>
<linearGradient id="paint1_linear_7149_15456" x1="1" y1="11.3883" x2="21.5206" y2="11.3883" gradientUnits="userSpaceOnUse">
<stop stop-color="#8A2387"/>
<stop offset="1" stop-color="#E94057"/>
</linearGradient>
<linearGradient id="paint2_linear_7149_15456" x1="5" y1="11.5" x2="18" y2="11.5" gradientUnits="userSpaceOnUse">
<stop offset="0.5" stop-color="#E94057"/>
<stop offset="1" stop-color="#F27121"/>
</linearGradient>
<linearGradient id="paint3_linear_7149_15456" x1="19.4141" y1="19.8759" x2="20.7109" y2="19.8759" gradientUnits="userSpaceOnUse">
<stop stop-color="#8A2387"/>
<stop offset="0.5" stop-color="#E94057"/>
<stop offset="1" stop-color="#F27121"/>
</linearGradient>
<linearGradient id="paint4_linear_7149_15456" x1="20.8906" y1="20.2954" x2="20.9267" y2="20.2954" gradientUnits="userSpaceOnUse">
<stop stop-color="#8A2387"/>
<stop offset="0.5" stop-color="#E94057"/>
<stop offset="1" stop-color="#F27121"/>
</linearGradient>
<linearGradient id="paint5_linear_7149_15456" x1="12.2812" y1="13.7047" x2="13.7942" y2="13.7047" gradientUnits="userSpaceOnUse">
<stop stop-color="#8A2387"/>
<stop offset="0.5" stop-color="#E94057"/>
<stop offset="1" stop-color="#F27121"/>
</linearGradient>
<linearGradient id="paint6_linear_7149_15456" x1="10.8438" y1="12.7534" x2="11.7443" y2="12.7534" gradientUnits="userSpaceOnUse">
<stop stop-color="#8A2387"/>
<stop offset="0.5" stop-color="#E94057"/>
<stop offset="1" stop-color="#F27121"/>
</linearGradient>
<linearGradient id="paint7_linear_7149_15456" x1="11.3125" y1="12.8613" x2="12.2491" y2="12.8613" gradientUnits="userSpaceOnUse">
<stop stop-color="#8A2387"/>
<stop offset="0.5" stop-color="#E94057"/>
<stop offset="1" stop-color="#F27121"/>
</linearGradient>
<linearGradient id="paint8_linear_7149_15456" x1="18.8359" y1="15.8207" x2="19.9167" y2="15.8207" gradientUnits="userSpaceOnUse">
<stop stop-color="#8A2387"/>
<stop offset="0.5" stop-color="#E94057"/>
<stop offset="1" stop-color="#F27121"/>
</linearGradient>
<linearGradient id="paint9_linear_7149_15456" x1="16.7891" y1="16.4288" x2="16.9332" y2="16.4288" gradientUnits="userSpaceOnUse">
<stop stop-color="#8A2387"/>
<stop offset="0.5" stop-color="#E94057"/>
<stop offset="1" stop-color="#F27121"/>
</linearGradient>
<linearGradient id="paint10_linear_7149_15456" x1="14.7656" y1="13.5221" x2="15.8463" y2="13.5221" gradientUnits="userSpaceOnUse">
<stop stop-color="#8A2387"/>
<stop offset="0.5" stop-color="#E94057"/>
<stop offset="1" stop-color="#F27121"/>
</linearGradient>
<linearGradient id="paint11_linear_7149_15456" x1="15.9219" y1="17.311" x2="21.3615" y2="17.311" gradientUnits="userSpaceOnUse">
<stop stop-color="#8A2387"/>
<stop offset="0.5" stop-color="#E94057"/>
<stop offset="1" stop-color="#F27121"/>
</linearGradient>
<linearGradient id="paint12_linear_7149_15456" x1="11.7422" y1="13.8451" x2="13.7955" y2="13.8451" gradientUnits="userSpaceOnUse">
<stop stop-color="#8A2387"/>
<stop offset="0.5" stop-color="#E94057"/>
<stop offset="1" stop-color="#F27121"/>
</linearGradient>
<linearGradient id="paint13_linear_7149_15456" x1="13.7969" y1="16.1272" x2="18.0477" y2="16.1272" gradientUnits="userSpaceOnUse">
<stop stop-color="#8A2387"/>
<stop offset="0.5" stop-color="#E94057"/>
<stop offset="1" stop-color="#F27121"/>
</linearGradient>
<linearGradient id="paint14_linear_7149_15456" x1="17.5391" y1="16.7014" x2="17.8273" y2="16.7014" gradientUnits="userSpaceOnUse">
<stop stop-color="#8A2387"/>
<stop offset="0.5" stop-color="#E94057"/>
<stop offset="1" stop-color="#F27121"/>
</linearGradient>
<linearGradient id="paint15_linear_7149_15456" x1="15.8828" y1="14.3502" x2="16.9996" y2="14.3502" gradientUnits="userSpaceOnUse">
<stop stop-color="#8A2387"/>
<stop offset="0.5" stop-color="#E94057"/>
<stop offset="1" stop-color="#F27121"/>
</linearGradient>
<linearGradient id="paint16_linear_7149_15456" x1="16.1719" y1="12.9319" x2="16.4601" y2="12.9319" gradientUnits="userSpaceOnUse">
<stop stop-color="#8A2387"/>
<stop offset="0.5" stop-color="#E94057"/>
<stop offset="1" stop-color="#F27121"/>
</linearGradient>
<linearGradient id="paint17_linear_7149_15456" x1="13" y1="11.6586" x2="16.1701" y2="11.6586" gradientUnits="userSpaceOnUse">
<stop stop-color="#8A2387"/>
<stop offset="0.5" stop-color="#E94057"/>
<stop offset="1" stop-color="#F27121"/>
</linearGradient>
<linearGradient id="paint18_linear_7149_15456" x1="2.60938" y1="21.1841" x2="2.63948" y2="21.1841" gradientUnits="userSpaceOnUse">
<stop stop-color="#F27121"/>
<stop offset="0.5" stop-color="#E94057"/>
<stop offset="1" stop-color="#8A2387"/>
</linearGradient>
<linearGradient id="paint19_linear_7149_15456" x1="20.8438" y1="2.43076" x2="22.0015" y2="2.43076" gradientUnits="userSpaceOnUse">
<stop stop-color="#F27121"/>
<stop offset="0.5" stop-color="#E94057"/>
<stop offset="1" stop-color="#8A2387"/>
</linearGradient>
<linearGradient id="paint20_linear_7149_15456" x1="5.55905" y1="2.87382" x2="3.43514" y2="2.35052" gradientUnits="userSpaceOnUse">
<stop stop-color="#F27121"/>
<stop offset="0.5" stop-color="#E94057"/>
<stop offset="1" stop-color="#8A2387"/>
</linearGradient>
<linearGradient id="paint21_linear_7149_15456" x1="21.8438" y1="1.49656" x2="21.8839" y2="1.49656" gradientUnits="userSpaceOnUse">
<stop stop-color="#F27121"/>
<stop offset="0.5" stop-color="#E94057"/>
<stop offset="1" stop-color="#8A2387"/>
</linearGradient>
<linearGradient id="paint22_linear_7149_15456" x1="13.9375" y1="10.2259" x2="15.1751" y2="10.2259" gradientUnits="userSpaceOnUse">
<stop stop-color="#F27121"/>
<stop offset="0.5" stop-color="#E94057"/>
<stop offset="1" stop-color="#8A2387"/>
</linearGradient>
<linearGradient id="paint23_linear_7149_15456" x1="13.0625" y1="12.1573" x2="13.861" y2="12.1573" gradientUnits="userSpaceOnUse">
<stop stop-color="#F27121"/>
<stop offset="0.5" stop-color="#E94057"/>
<stop offset="1" stop-color="#8A2387"/>
</linearGradient>
<linearGradient id="paint24_linear_7149_15456" x1="13.3047" y1="11.5796" x2="13.9435" y2="11.5796" gradientUnits="userSpaceOnUse">
<stop stop-color="#F27121"/>
<stop offset="0.5" stop-color="#E94057"/>
<stop offset="1" stop-color="#8A2387"/>
</linearGradient>
<linearGradient id="paint25_linear_7149_15456" x1="16.5391" y1="3.18644" x2="17.2178" y2="3.18644" gradientUnits="userSpaceOnUse">
<stop stop-color="#F27121"/>
<stop offset="0.5" stop-color="#E94057"/>
<stop offset="1" stop-color="#8A2387"/>
</linearGradient>
<linearGradient id="paint26_linear_7149_15456" x1="17.4922" y1="6.01314" x2="17.612" y2="6.01314" gradientUnits="userSpaceOnUse">
<stop stop-color="#F27121"/>
<stop offset="0.5" stop-color="#E94057"/>
<stop offset="1" stop-color="#8A2387"/>
</linearGradient>
<linearGradient id="paint27_linear_7149_15456" x1="13.8594" y1="7.68254" x2="14.7776" y2="7.68254" gradientUnits="userSpaceOnUse">
<stop stop-color="#F27121"/>
<stop offset="0.5" stop-color="#E94057"/>
<stop offset="1" stop-color="#8A2387"/>
</linearGradient>
<linearGradient id="paint28_linear_7149_15456" x1="2.53906" y1="11.7803" x2="21.2061" y2="11.7803" gradientUnits="userSpaceOnUse">
<stop stop-color="#8A2387"/>
<stop offset="0.208333" stop-color="#E94057"/>
<stop offset="1" stop-color="#F27121"/>
</linearGradient>
<linearGradient id="paint29_linear_7149_15456" x1="16.0547" y1="4.00289" x2="21.0052" y2="4.00289" gradientUnits="userSpaceOnUse">
<stop stop-color="#F27121"/>
<stop offset="0.5" stop-color="#E94057"/>
<stop offset="1" stop-color="#8A2387"/>
</linearGradient>
<linearGradient id="paint30_linear_7149_15456" x1="13.8594" y1="10.5242" x2="15.4962" y2="10.5242" gradientUnits="userSpaceOnUse">
<stop stop-color="#F27121"/>
<stop offset="0.5" stop-color="#E94057"/>
<stop offset="1" stop-color="#8A2387"/>
</linearGradient>
<linearGradient id="paint31_linear_7149_15456" x1="15.1797" y1="7.04584" x2="19.2519" y2="7.04584" gradientUnits="userSpaceOnUse">
<stop stop-color="#F27121"/>
<stop offset="0.5" stop-color="#E94057"/>
<stop offset="1" stop-color="#8A2387"/>
</linearGradient>
<linearGradient id="paint32_linear_7149_15456" x1="17.7344" y1="5.09659" x2="17.9739" y2="5.09659" gradientUnits="userSpaceOnUse">
<stop stop-color="#F27121"/>
<stop offset="0.5" stop-color="#E94057"/>
<stop offset="1" stop-color="#8A2387"/>
</linearGradient>
<linearGradient id="paint33_linear_7149_15456" x1="14.7812" y1="6.46805" x2="15.6995" y2="6.46805" gradientUnits="userSpaceOnUse">
<stop stop-color="#F27121"/>
<stop offset="0.5" stop-color="#E94057"/>
<stop offset="1" stop-color="#8A2387"/>
</linearGradient>
<linearGradient id="paint34_linear_7149_15456" x1="13.5391" y1="6.60831" x2="13.7786" y2="6.60831" gradientUnits="userSpaceOnUse">
<stop stop-color="#F27121"/>
<stop offset="0.5" stop-color="#E94057"/>
<stop offset="1" stop-color="#8A2387"/>
</linearGradient>
<linearGradient id="paint35_linear_7149_15456" x1="10.9453" y1="8.51565" x2="13.5403" y2="8.51565" gradientUnits="userSpaceOnUse">
<stop stop-color="#F27121"/>
<stop offset="0.5" stop-color="#E94057"/>
<stop offset="1" stop-color="#8A2387"/>
</linearGradient>
<linearGradient id="paint36_linear_7149_15456" x1="3.33949" y1="3.25363" x2="5.9741" y2="3.3631" gradientUnits="userSpaceOnUse">
<stop stop-color="#8A2387"/>
<stop offset="1" stop-color="#E94057"/>
</linearGradient>
</defs>
</svg>
