<svg xmlns="http://www.w3.org/2000/svg" viewBox="0 0 32 32">
    <g id="missing-token" transform="translate(-861 -84)">
        <g transform="translate(-2591.863 -1219.384)">
            <circle cx="8.357" cy="8.357" r="8.357" transform="translate(3457.793 1309.684)" fill="none" stroke="#59606a" stroke-miterlimit="10" stroke-width="1.2"/>
            <circle cx="6.378" cy="6.378" r="6.378" transform="translate(3459.773 1311.664)" fill="none" stroke="#59606a" stroke-miterlimit="10" stroke-width="1.2"/>
            <path d="M3467.076,1319.482a4.3,4.3,0,0,1,3.618-1.969" transform="translate(-4.243 -3.345)" fill="none" stroke="#59606a" stroke-linecap="round" stroke-miterlimit="10" stroke-width="1.2"/>
            <path d="M3465.871,1323.6a4.348,4.348,0,0,1,.15-.533" transform="translate(-3.834 -5.257)" fill="none" stroke="#59606a" stroke-linecap="round" stroke-miterlimit="10" stroke-width="1.2"/>
            <line y2="2.023" transform="translate(3466.027 1309.691)" fill="none" stroke="#59606a" stroke-miterlimit="10" stroke-width="1.2"/>
            <line y2="1.958" transform="translate(3466.027 1324.461)" fill="none" stroke="#59606a" stroke-miterlimit="10" stroke-width="1.2"/>
            <line x2="1.43" y2="1.43" transform="translate(3460.113 1312.141)" fill="none" stroke="#59606a" stroke-miterlimit="10" stroke-width="1.2"/>
            <line x2="1.385" y2="1.385" transform="translate(3470.557 1322.585)" fill="none" stroke="#59606a" stroke-miterlimit="10" stroke-width="1.2"/>
            <line x2="2.023" transform="translate(3457.663 1318.055)" fill="none" stroke="#59606a" stroke-miterlimit="10" stroke-width="1.2"/>
            <line x2="1.958" transform="translate(3472.433 1318.055)" fill="none" stroke="#59606a" stroke-miterlimit="10" stroke-width="1.2"/>
            <line y1="1.43" x2="1.43" transform="translate(3460.113 1322.54)" fill="none" stroke="#59606a" stroke-miterlimit="10" stroke-width="1.2"/>
            <line y1="1.385" x2="1.385" transform="translate(3470.557 1312.141)" fill="none" stroke="#59606a" stroke-miterlimit="10" stroke-width="1.2"/>
            <path d="M3479.748,1315.028a8.358,8.358,0,1,1-6.946,14.011" transform="translate(-7.305 -2.578)" fill="none" stroke="#59606a" stroke-miterlimit="10" stroke-width="1.2"/>
            <path d="M3483.608,1319.494a6.379,6.379,0,1,1-5.548,11.4" transform="translate(-9.841 -4.733)" fill="none" stroke="#59606a" stroke-miterlimit="10" stroke-width="1.2"/>
            <line transform="translate(3471.492 1327.187)" fill="none" stroke="#59606a" stroke-miterlimit="10" stroke-width="1.2"/>
            <line x2="1.385" y2="1.385" transform="translate(3476.022 1325.31)" fill="none" stroke="#59606a" stroke-miterlimit="10" stroke-width="1.2"/>
            <line x2="1.958" transform="translate(3477.898 1320.781)" fill="none" stroke="#59606a" stroke-miterlimit="10" stroke-width="1.2"/>
            <line y1="1.385" x2="1.385" transform="translate(3476.022 1314.866)" fill="none" stroke="#59606a" stroke-miterlimit="10" stroke-width="1.2"/></g>
        <rect width="32" height="32" transform="translate(861 84)" fill="none"/>
    </g>
</svg>